<mxfile host="app.diagrams.net" modified="2022-04-26T19:14:45.801Z" agent="5.0 (Windows NT 10.0; Win64; x64) AppleWebKit/537.36 (KHTML, like Gecko) Chrome/100.0.4896.127 Safari/537.36" etag="E4mN6ZwjbK0ozTuotXhB" version="17.4.6" type="github">
  <diagram id="SU1WAMhrYBviTZR2fr15" name="Page-1">
    <mxGraphModel dx="1422" dy="762" grid="1" gridSize="10" guides="1" tooltips="1" connect="1" arrows="1" fold="1" page="1" pageScale="1" pageWidth="827" pageHeight="1169" math="0" shadow="0">
      <root>
        <mxCell id="0" />
        <mxCell id="1" parent="0" />
        <mxCell id="fy6umiXoagf_HvimISJd-13" style="edgeStyle=orthogonalEdgeStyle;rounded=0;orthogonalLoop=1;jettySize=auto;html=1;entryX=0;entryY=0.5;entryDx=0;entryDy=0;entryPerimeter=0;" edge="1" parent="1" source="fy6umiXoagf_HvimISJd-1" target="fy6umiXoagf_HvimISJd-7">
          <mxGeometry relative="1" as="geometry" />
        </mxCell>
        <mxCell id="fy6umiXoagf_HvimISJd-1" value="" style="aspect=fixed;perimeter=ellipsePerimeter;html=1;align=center;shadow=0;dashed=0;spacingTop=3;image;image=img/lib/active_directory/generic_server.svg;" vertex="1" parent="1">
          <mxGeometry x="50" y="560" width="61.6" height="110" as="geometry" />
        </mxCell>
        <mxCell id="fy6umiXoagf_HvimISJd-29" style="edgeStyle=orthogonalEdgeStyle;rounded=0;orthogonalLoop=1;jettySize=auto;html=1;" edge="1" parent="1" source="fy6umiXoagf_HvimISJd-2">
          <mxGeometry relative="1" as="geometry">
            <mxPoint x="80.79999999999995" y="820" as="targetPoint" />
          </mxGeometry>
        </mxCell>
        <mxCell id="fy6umiXoagf_HvimISJd-2" value="OVH VPS&lt;br&gt;vCPU : 2&lt;br&gt;RAM : 4GB&lt;br&gt;STORAGE: 80GB&lt;br&gt;" style="text;html=1;align=center;verticalAlign=middle;resizable=0;points=[];autosize=1;strokeColor=none;fillColor=none;" vertex="1" parent="1">
          <mxGeometry x="25.8" y="680" width="110" height="60" as="geometry" />
        </mxCell>
        <mxCell id="fy6umiXoagf_HvimISJd-14" style="edgeStyle=orthogonalEdgeStyle;rounded=0;orthogonalLoop=1;jettySize=auto;html=1;entryX=0.461;entryY=1.1;entryDx=0;entryDy=0;entryPerimeter=0;" edge="1" parent="1" source="fy6umiXoagf_HvimISJd-7" target="fy6umiXoagf_HvimISJd-11">
          <mxGeometry relative="1" as="geometry" />
        </mxCell>
        <mxCell id="fy6umiXoagf_HvimISJd-19" style="edgeStyle=orthogonalEdgeStyle;rounded=0;orthogonalLoop=1;jettySize=auto;html=1;startArrow=none;" edge="1" parent="1" source="fy6umiXoagf_HvimISJd-50" target="fy6umiXoagf_HvimISJd-15">
          <mxGeometry relative="1" as="geometry" />
        </mxCell>
        <mxCell id="fy6umiXoagf_HvimISJd-7" value="" style="sketch=0;points=[[0.015,0.015,0],[0.985,0.015,0],[0.985,0.985,0],[0.015,0.985,0],[0.25,0,0],[0.5,0,0],[0.75,0,0],[1,0.25,0],[1,0.5,0],[1,0.75,0],[0.75,1,0],[0.5,1,0],[0.25,1,0],[0,0.75,0],[0,0.5,0],[0,0.25,0]];verticalLabelPosition=bottom;html=1;verticalAlign=top;aspect=fixed;align=center;pointerEvents=1;shape=mxgraph.cisco19.rect;prIcon=ssl_terminator;fillColor=#FAFAFA;strokeColor=#005073;" vertex="1" parent="1">
          <mxGeometry x="230" y="600" width="64" height="50" as="geometry" />
        </mxCell>
        <mxCell id="fy6umiXoagf_HvimISJd-8" value="SSL GATEWAY&lt;br&gt;" style="text;html=1;align=center;verticalAlign=middle;resizable=0;points=[];autosize=1;strokeColor=none;fillColor=none;" vertex="1" parent="1">
          <mxGeometry x="212" y="660" width="100" height="20" as="geometry" />
        </mxCell>
        <mxCell id="fy6umiXoagf_HvimISJd-10" value="" style="sketch=0;outlineConnect=0;fontColor=#232F3E;gradientColor=none;fillColor=#4D27AA;strokeColor=none;dashed=0;verticalLabelPosition=bottom;verticalAlign=top;align=center;html=1;fontSize=12;fontStyle=0;aspect=fixed;pointerEvents=1;shape=mxgraph.aws4.endpoint;" vertex="1" parent="1">
          <mxGeometry x="570" y="470" width="48" height="48" as="geometry" />
        </mxCell>
        <mxCell id="fy6umiXoagf_HvimISJd-11" value="Websocket to continually update trending and minting collections" style="text;html=1;align=center;verticalAlign=middle;resizable=0;points=[];autosize=1;strokeColor=none;fillColor=none;" vertex="1" parent="1">
          <mxGeometry x="421.5" y="518" width="360" height="20" as="geometry" />
        </mxCell>
        <mxCell id="fy6umiXoagf_HvimISJd-15" value="" style="sketch=0;outlineConnect=0;fontColor=#232F3E;gradientColor=none;fillColor=#4D27AA;strokeColor=none;dashed=0;verticalLabelPosition=bottom;verticalAlign=top;align=center;html=1;fontSize=12;fontStyle=0;aspect=fixed;pointerEvents=1;shape=mxgraph.aws4.endpoint;" vertex="1" parent="1">
          <mxGeometry x="182" y="490" width="48" height="48" as="geometry" />
        </mxCell>
        <mxCell id="fy6umiXoagf_HvimISJd-25" value="Client" style="sketch=0;outlineConnect=0;fontColor=#232F3E;gradientColor=none;strokeColor=#232F3E;fillColor=#ffffff;dashed=0;verticalLabelPosition=bottom;verticalAlign=top;align=center;html=1;fontSize=12;fontStyle=0;aspect=fixed;shape=mxgraph.aws4.resourceIcon;resIcon=mxgraph.aws4.client;" vertex="1" parent="1">
          <mxGeometry x="469.5" y="190" width="60" height="60" as="geometry" />
        </mxCell>
        <mxCell id="fy6umiXoagf_HvimISJd-26" value="Mobile client" style="sketch=0;outlineConnect=0;fontColor=#232F3E;gradientColor=none;strokeColor=#232F3E;fillColor=#ffffff;dashed=0;verticalLabelPosition=bottom;verticalAlign=top;align=center;html=1;fontSize=12;fontStyle=0;aspect=fixed;shape=mxgraph.aws4.resourceIcon;resIcon=mxgraph.aws4.mobile_client;" vertex="1" parent="1">
          <mxGeometry x="230" y="190" width="60" height="60" as="geometry" />
        </mxCell>
        <mxCell id="fy6umiXoagf_HvimISJd-32" style="edgeStyle=orthogonalEdgeStyle;rounded=0;orthogonalLoop=1;jettySize=auto;html=1;" edge="1" parent="1" source="fy6umiXoagf_HvimISJd-28" target="fy6umiXoagf_HvimISJd-31">
          <mxGeometry relative="1" as="geometry" />
        </mxCell>
        <mxCell id="fy6umiXoagf_HvimISJd-53" style="edgeStyle=orthogonalEdgeStyle;rounded=0;orthogonalLoop=1;jettySize=auto;html=1;entryX=0.5;entryY=0;entryDx=0;entryDy=0;entryPerimeter=0;" edge="1" parent="1" source="fy6umiXoagf_HvimISJd-28" target="fy6umiXoagf_HvimISJd-52">
          <mxGeometry relative="1" as="geometry" />
        </mxCell>
        <mxCell id="fy6umiXoagf_HvimISJd-28" value="" style="shape=image;html=1;verticalAlign=top;verticalLabelPosition=bottom;labelBackgroundColor=#ffffff;imageAspect=0;aspect=fixed;image=https://cdn4.iconfinder.com/data/icons/scripting-and-programming-languages/512/Python_logo-128.png" vertex="1" parent="1">
          <mxGeometry x="50" y="830" width="58" height="58" as="geometry" />
        </mxCell>
        <mxCell id="fy6umiXoagf_HvimISJd-31" value="" style="dashed=0;outlineConnect=0;html=1;align=center;labelPosition=center;verticalLabelPosition=bottom;verticalAlign=top;shape=mxgraph.weblogos.mongodb" vertex="1" parent="1">
          <mxGeometry x="135.8" y="815.9" width="41.2" height="86.2" as="geometry" />
        </mxCell>
        <mxCell id="fy6umiXoagf_HvimISJd-43" style="edgeStyle=orthogonalEdgeStyle;rounded=0;orthogonalLoop=1;jettySize=auto;html=1;entryX=0.5;entryY=1;entryDx=0;entryDy=0;" edge="1" parent="1" source="fy6umiXoagf_HvimISJd-33" target="fy6umiXoagf_HvimISJd-35">
          <mxGeometry relative="1" as="geometry" />
        </mxCell>
        <mxCell id="fy6umiXoagf_HvimISJd-33" value="" style="strokeColor=#dddddd;shadow=1;strokeWidth=1;rounded=1;absoluteArcSize=1;arcSize=2;" vertex="1" parent="1">
          <mxGeometry x="296" y="430" width="100" height="60" as="geometry" />
        </mxCell>
        <mxCell id="fy6umiXoagf_HvimISJd-34" value="Firebase" style="sketch=0;dashed=0;connectable=0;html=1;fillColor=#5184F3;strokeColor=none;shape=mxgraph.gcp2.firebase;part=1;labelPosition=right;verticalLabelPosition=middle;align=left;verticalAlign=middle;spacingLeft=5;fontColor=#999999;fontSize=12;" vertex="1" parent="fy6umiXoagf_HvimISJd-33">
          <mxGeometry width="32.4" height="45" relative="1" as="geometry">
            <mxPoint x="5" y="7" as="offset" />
          </mxGeometry>
        </mxCell>
        <mxCell id="fy6umiXoagf_HvimISJd-40" style="edgeStyle=orthogonalEdgeStyle;rounded=0;orthogonalLoop=1;jettySize=auto;html=1;" edge="1" parent="1" source="fy6umiXoagf_HvimISJd-35" target="fy6umiXoagf_HvimISJd-26">
          <mxGeometry relative="1" as="geometry" />
        </mxCell>
        <mxCell id="fy6umiXoagf_HvimISJd-41" style="edgeStyle=orthogonalEdgeStyle;rounded=0;orthogonalLoop=1;jettySize=auto;html=1;" edge="1" parent="1" source="fy6umiXoagf_HvimISJd-35" target="fy6umiXoagf_HvimISJd-25">
          <mxGeometry relative="1" as="geometry" />
        </mxCell>
        <mxCell id="fy6umiXoagf_HvimISJd-44" style="edgeStyle=orthogonalEdgeStyle;rounded=0;orthogonalLoop=1;jettySize=auto;html=1;" edge="1" parent="1" source="fy6umiXoagf_HvimISJd-35" target="fy6umiXoagf_HvimISJd-10">
          <mxGeometry relative="1" as="geometry">
            <mxPoint x="430" y="470" as="targetPoint" />
          </mxGeometry>
        </mxCell>
        <mxCell id="fy6umiXoagf_HvimISJd-45" style="edgeStyle=orthogonalEdgeStyle;rounded=0;orthogonalLoop=1;jettySize=auto;html=1;" edge="1" parent="1" source="fy6umiXoagf_HvimISJd-35" target="fy6umiXoagf_HvimISJd-15">
          <mxGeometry relative="1" as="geometry" />
        </mxCell>
        <mxCell id="fy6umiXoagf_HvimISJd-35" value="" style="shape=image;html=1;verticalAlign=top;verticalLabelPosition=bottom;labelBackgroundColor=#ffffff;imageAspect=0;aspect=fixed;image=https://cdn0.iconfinder.com/data/icons/phosphor-light-vol-1/256/angular-logo-light-128.png" vertex="1" parent="1">
          <mxGeometry x="328" y="310" width="68" height="68" as="geometry" />
        </mxCell>
        <mxCell id="fy6umiXoagf_HvimISJd-50" value="Various API EndPoint&amp;nbsp;" style="text;html=1;align=center;verticalAlign=middle;resizable=0;points=[];autosize=1;strokeColor=none;fillColor=none;" vertex="1" parent="1">
          <mxGeometry x="135.8" y="550" width="130" height="20" as="geometry" />
        </mxCell>
        <mxCell id="fy6umiXoagf_HvimISJd-51" value="" style="edgeStyle=orthogonalEdgeStyle;rounded=0;orthogonalLoop=1;jettySize=auto;html=1;endArrow=none;" edge="1" parent="1" source="fy6umiXoagf_HvimISJd-7" target="fy6umiXoagf_HvimISJd-50">
          <mxGeometry relative="1" as="geometry">
            <mxPoint x="262" y="600" as="sourcePoint" />
            <mxPoint x="206" y="538" as="targetPoint" />
          </mxGeometry>
        </mxCell>
        <mxCell id="fy6umiXoagf_HvimISJd-52" value="" style="sketch=0;html=1;dashed=0;whitespace=wrap;fillColor=#2875E2;strokeColor=#ffffff;points=[[0.005,0.63,0],[0.1,0.2,0],[0.9,0.2,0],[0.5,0,0],[0.995,0.63,0],[0.72,0.99,0],[0.5,1,0],[0.28,0.99,0]];shape=mxgraph.kubernetes.icon;prIcon=api" vertex="1" parent="1">
          <mxGeometry x="100" y="950" width="50" height="48" as="geometry" />
        </mxCell>
        <mxCell id="fy6umiXoagf_HvimISJd-54" value="OpenSea API" style="text;html=1;align=center;verticalAlign=middle;resizable=0;points=[];autosize=1;strokeColor=none;fillColor=none;" vertex="1" parent="1">
          <mxGeometry x="80" y="1010" width="90" height="20" as="geometry" />
        </mxCell>
      </root>
    </mxGraphModel>
  </diagram>
</mxfile>
